<?xml version="1.0" encoding="utf-8"?>
<!-- Svg Vector Icons : http://www.onlinewebfonts.com/icon -->
<!DOCTYPE svg PUBLIC "-//W3C//DTD SVG 1.1//EN" "http://www.w3.org/Graphics/SVG/1.1/DTD/svg11.dtd">
<svg version="1.1" xmlns="http://www.w3.org/2000/svg" xmlns:xlink="http://www.w3.org/1999/xlink" x="0px" y="0px" viewBox="0 0 1000 1000" enable-background="new 0 0 1000 1000" xml:space="preserve">
<metadata> Svg Vector Icons : http://www.onlinewebfonts.com/icon </metadata>
<g><g transform="translate(0.000000,511.000000) scale(0.100000,-0.100000)"><path d="M423.6,4394.5c-56.8-25.5-135.2-86.2-180.3-137.2C88.4,4080.9,100.2,4359.2,100.2,815.6c0-3514.2-9.8-3265.3,129.4-3428c39.2-45.1,111.7-103.9,160.7-135.2l92.1-52.9l1362.2-5.9c748.7-2,1381.8,0,1405.3,5.9c56.8,13.7,107.8,111.7,92.1,176.4c-5.9,27.5-35.3,66.7-60.8,88.2c-49,39.2-84.3,39.2-1399.4,39.2H533.3l-54.9,47.1l-54.9,47V815.6v3218.2l54.9,47l54.9,47h1372h1370l1027-519.4l1025.1-519.4h2069.7h2069.7l54.9-47l54.9-47l9.8-1536.6C9592.3,615.7,9602-86,9609.9-97.7c7.8-11.8,41.2-33.3,74.5-47c74.5-31.4,160.7,0,194,70.5c15.7,35.3,21.6,472.4,21.6,1534.7c0,1660.1,5.9,1589.5-139.2,1754.2c-43.1,47-123.5,109.8-178.4,137.2l-101.9,51H7446.1H5411.7l-1036.8,519.4l-1038.8,519.4H1928.8H521.6L423.6,4394.5z"/><path d="M5901.7,578.4c-135.2-27.4-286.2-113.7-394-227.4C5374.4,210,5311.7,68.9,5300-125.2l-11.7-152.9l-462.6-9.8c-368.5-5.9-484.1-15.7-570.3-43.1c-252.8-80.3-427.3-205.8-515.5-368.5l-43.1-82.3v-1479.8v-1479.8l43.1-78.4c52.9-101.9,190.1-229.3,313.6-292c227.3-113.7,117.6-109.7,2732.2-109.7c2606.7,0,2524.4-2,2743.9,109.7c141.1,70.6,260.7,188.2,313.6,307.7l47.1,101.9l5.9,1419c5.9,1601.3,11.8,1530.7-145,1705.2c-103.9,115.6-207.8,178.3-390,237.1c-121.5,39.2-188.1,45.1-599.7,54.9l-462.6,7.9l-11.8,156.8c-23.5,348.9-278.3,637-619.4,701.7C7540.2,603.9,6027.1,603.9,5901.7,578.4z M7667.6,264.8c196-43.1,311.6-211.7,311.6-452.8V-282H6793.4H5607.7v103.9c0,227.4,105.8,388.1,284.2,435.1C6019.3,292.3,7512.8,298.2,7667.6,264.8z M9174.8-617.1c152.9-23.5,307.7-105.8,368.5-194l43.1-64.7v-1370c0-1530.7,5.9-1454.3-137.2-1554.2c-162.7-111.7-52.9-107.8-2665.5-107.8c-2608.7,0-2510.7-3.9-2655.8,107.8c-133.3,100-127.4,21.6-127.4,1538.6c0,1477.8-3.9,1424.9,101.9,1522.9c56.8,54.9,174.4,103.9,290.1,123.5C4533.6-591.7,9025.8-591.7,9174.8-617.1z"/><path d="M6434.8-968c-229.3-60.8-403.8-162.7-588-345c-137.2-135.2-174.4-188.2-247-343c-111.7-237.2-137.2-352.8-137.2-605.6c-2-250.9,25.5-368.5,137.2-601.7c152.9-319.5,419.4-550.7,764.4-664.4c158.8-51,198-56.8,439-56.8c237.1,2,280.3,7.8,421.4,56.8c229.3,78.4,354.7,156.8,519.4,323.4c258.7,262.6,380.2,564.5,378.3,952.5c0,393.9-107.8,660.5-378.3,932.9c-137.2,139.2-196,184.2-335.1,250.9c-94.1,45.1-229.3,94.1-303.8,109.7C6915-917,6611.2-922.9,6434.8-968z M7103.1-1265.9c299.9-98,552.7-343,674.2-654.6c45.1-115.6,52.9-164.6,52.9-341c0-176.4-7.9-225.4-52.9-339.1c-154.8-397.9-515.5-672.3-915.3-693.8c-317.5-19.6-566.4,76.4-791.8,301.8c-421.4,425.3-429.2,1042.7-13.7,1454.3c188.2,188.1,384.2,282.2,668.3,323.4C6811.1-1203.2,6985.5-1226.7,7103.1-1265.9z"/></g></g>
</svg>